<mxfile host="app.diagrams.net" agent="Mozilla/5.0 (X11; Linux x86_64) AppleWebKit/537.36 (KHTML, like Gecko) Chrome/140.0.0.0 Safari/537.36" version="28.2.4">
  <diagram name="Page-1" id="51vB2u_QDRZg887AXnSR">
    <mxGraphModel dx="1544" dy="947" grid="1" gridSize="10" guides="1" tooltips="1" connect="1" arrows="1" fold="1" page="1" pageScale="1" pageWidth="827" pageHeight="1169" math="0" shadow="0">
      <root>
        <mxCell id="0" />
        <mxCell id="1" parent="0" />
        <mxCell id="4FyZVL3Yt_gfwvQZV7pb-8" style="edgeStyle=orthogonalEdgeStyle;rounded=0;orthogonalLoop=1;jettySize=auto;html=1;entryX=0.5;entryY=0;entryDx=0;entryDy=0;" edge="1" parent="1" source="qDjXoSYU_dlHwYHpqdUi-1" target="qDjXoSYU_dlHwYHpqdUi-4">
          <mxGeometry relative="1" as="geometry" />
        </mxCell>
        <mxCell id="qDjXoSYU_dlHwYHpqdUi-1" value="Administrator" style="rounded=1;whiteSpace=wrap;html=1;" parent="1" vertex="1">
          <mxGeometry x="280" y="130" width="120" height="60" as="geometry" />
        </mxCell>
        <mxCell id="qDjXoSYU_dlHwYHpqdUi-5" style="edgeStyle=orthogonalEdgeStyle;rounded=0;orthogonalLoop=1;jettySize=auto;html=1;entryX=0;entryY=0.5;entryDx=0;entryDy=0;" parent="1" source="qDjXoSYU_dlHwYHpqdUi-2" target="qDjXoSYU_dlHwYHpqdUi-3" edge="1">
          <mxGeometry relative="1" as="geometry" />
        </mxCell>
        <mxCell id="4FyZVL3Yt_gfwvQZV7pb-7" style="edgeStyle=orthogonalEdgeStyle;rounded=0;orthogonalLoop=1;jettySize=auto;html=1;entryX=0;entryY=0.5;entryDx=0;entryDy=0;" edge="1" parent="1" source="qDjXoSYU_dlHwYHpqdUi-2" target="qDjXoSYU_dlHwYHpqdUi-10">
          <mxGeometry relative="1" as="geometry">
            <Array as="points">
              <mxPoint x="90" y="555" />
            </Array>
          </mxGeometry>
        </mxCell>
        <mxCell id="qDjXoSYU_dlHwYHpqdUi-2" value="User" style="rounded=1;whiteSpace=wrap;html=1;" parent="1" vertex="1">
          <mxGeometry x="30" y="400" width="120" height="60" as="geometry" />
        </mxCell>
        <mxCell id="qDjXoSYU_dlHwYHpqdUi-6" style="edgeStyle=orthogonalEdgeStyle;rounded=0;orthogonalLoop=1;jettySize=auto;html=1;entryX=0;entryY=0.5;entryDx=0;entryDy=0;" parent="1" source="qDjXoSYU_dlHwYHpqdUi-3" target="qDjXoSYU_dlHwYHpqdUi-4" edge="1">
          <mxGeometry relative="1" as="geometry">
            <Array as="points">
              <mxPoint x="300" y="290" />
              <mxPoint x="300" y="290" />
            </Array>
          </mxGeometry>
        </mxCell>
        <mxCell id="qDjXoSYU_dlHwYHpqdUi-3" value="Memesan" style="rhombus;whiteSpace=wrap;html=1;" parent="1" vertex="1">
          <mxGeometry x="130" y="240" width="100" height="100" as="geometry" />
        </mxCell>
        <mxCell id="qDjXoSYU_dlHwYHpqdUi-8" style="edgeStyle=orthogonalEdgeStyle;rounded=0;orthogonalLoop=1;jettySize=auto;html=1;" parent="1" source="qDjXoSYU_dlHwYHpqdUi-4" target="qDjXoSYU_dlHwYHpqdUi-7" edge="1">
          <mxGeometry relative="1" as="geometry" />
        </mxCell>
        <mxCell id="qDjXoSYU_dlHwYHpqdUi-4" value="Menu" style="rounded=1;whiteSpace=wrap;html=1;" parent="1" vertex="1">
          <mxGeometry x="280" y="260" width="120" height="60" as="geometry" />
        </mxCell>
        <mxCell id="4FyZVL3Yt_gfwvQZV7pb-3" style="edgeStyle=orthogonalEdgeStyle;rounded=0;orthogonalLoop=1;jettySize=auto;html=1;entryX=1;entryY=0.5;entryDx=0;entryDy=0;" edge="1" parent="1" source="qDjXoSYU_dlHwYHpqdUi-7" target="4FyZVL3Yt_gfwvQZV7pb-1">
          <mxGeometry relative="1" as="geometry">
            <Array as="points">
              <mxPoint x="500" y="420" />
            </Array>
          </mxGeometry>
        </mxCell>
        <mxCell id="qDjXoSYU_dlHwYHpqdUi-7" value="isStock?" style="rhombus;whiteSpace=wrap;html=1;" parent="1" vertex="1">
          <mxGeometry x="450" y="240" width="100" height="100" as="geometry" />
        </mxCell>
        <mxCell id="qDjXoSYU_dlHwYHpqdUi-17" style="edgeStyle=orthogonalEdgeStyle;rounded=0;orthogonalLoop=1;jettySize=auto;html=1;entryX=0;entryY=0.5;entryDx=0;entryDy=0;" parent="1" source="qDjXoSYU_dlHwYHpqdUi-10" target="qDjXoSYU_dlHwYHpqdUi-12" edge="1">
          <mxGeometry relative="1" as="geometry" />
        </mxCell>
        <mxCell id="4FyZVL3Yt_gfwvQZV7pb-5" style="edgeStyle=orthogonalEdgeStyle;rounded=0;orthogonalLoop=1;jettySize=auto;html=1;" edge="1" parent="1" source="qDjXoSYU_dlHwYHpqdUi-10" target="qDjXoSYU_dlHwYHpqdUi-2">
          <mxGeometry relative="1" as="geometry" />
        </mxCell>
        <mxCell id="qDjXoSYU_dlHwYHpqdUi-10" value="Transaksi" style="rounded=1;whiteSpace=wrap;html=1;" parent="1" vertex="1">
          <mxGeometry x="280" y="525" width="120" height="60" as="geometry" />
        </mxCell>
        <mxCell id="qDjXoSYU_dlHwYHpqdUi-19" style="edgeStyle=orthogonalEdgeStyle;rounded=0;orthogonalLoop=1;jettySize=auto;html=1;" parent="1" source="qDjXoSYU_dlHwYHpqdUi-12" target="qDjXoSYU_dlHwYHpqdUi-18" edge="1">
          <mxGeometry relative="1" as="geometry" />
        </mxCell>
        <mxCell id="qDjXoSYU_dlHwYHpqdUi-12" value="isTransaction&lt;div&gt;Succed?&lt;/div&gt;" style="rhombus;whiteSpace=wrap;html=1;" parent="1" vertex="1">
          <mxGeometry x="480" y="505" width="100" height="100" as="geometry" />
        </mxCell>
        <mxCell id="qDjXoSYU_dlHwYHpqdUi-23" style="edgeStyle=orthogonalEdgeStyle;rounded=0;orthogonalLoop=1;jettySize=auto;html=1;" parent="1" source="qDjXoSYU_dlHwYHpqdUi-18" target="qDjXoSYU_dlHwYHpqdUi-22" edge="1">
          <mxGeometry relative="1" as="geometry" />
        </mxCell>
        <mxCell id="4FyZVL3Yt_gfwvQZV7pb-10" style="edgeStyle=orthogonalEdgeStyle;rounded=0;orthogonalLoop=1;jettySize=auto;html=1;entryX=1;entryY=0.5;entryDx=0;entryDy=0;" edge="1" parent="1" source="qDjXoSYU_dlHwYHpqdUi-18" target="qDjXoSYU_dlHwYHpqdUi-1">
          <mxGeometry relative="1" as="geometry">
            <Array as="points">
              <mxPoint x="650" y="160" />
            </Array>
          </mxGeometry>
        </mxCell>
        <mxCell id="qDjXoSYU_dlHwYHpqdUi-18" value="Laporan" style="rounded=1;whiteSpace=wrap;html=1;" parent="1" vertex="1">
          <mxGeometry x="590" y="390" width="120" height="60" as="geometry" />
        </mxCell>
        <mxCell id="qDjXoSYU_dlHwYHpqdUi-22" value="Menu&lt;div&gt;Processed&lt;/div&gt;" style="ellipse;whiteSpace=wrap;html=1;" parent="1" vertex="1">
          <mxGeometry x="780" y="380" width="120" height="80" as="geometry" />
        </mxCell>
        <mxCell id="4FyZVL3Yt_gfwvQZV7pb-4" style="edgeStyle=orthogonalEdgeStyle;rounded=0;orthogonalLoop=1;jettySize=auto;html=1;entryX=0.5;entryY=0;entryDx=0;entryDy=0;" edge="1" parent="1" source="4FyZVL3Yt_gfwvQZV7pb-1" target="qDjXoSYU_dlHwYHpqdUi-10">
          <mxGeometry relative="1" as="geometry" />
        </mxCell>
        <mxCell id="4FyZVL3Yt_gfwvQZV7pb-1" value="Order Item" style="rounded=1;whiteSpace=wrap;html=1;" vertex="1" parent="1">
          <mxGeometry x="280" y="390" width="120" height="60" as="geometry" />
        </mxCell>
        <mxCell id="4FyZVL3Yt_gfwvQZV7pb-11" value="M" style="text;html=1;align=center;verticalAlign=middle;whiteSpace=wrap;rounded=0;" vertex="1" parent="1">
          <mxGeometry x="40" y="360" width="60" height="50" as="geometry" />
        </mxCell>
        <mxCell id="4FyZVL3Yt_gfwvQZV7pb-12" value="M" style="text;html=1;align=center;verticalAlign=middle;whiteSpace=wrap;rounded=0;" vertex="1" parent="1">
          <mxGeometry x="384" y="280" width="60" height="50" as="geometry" />
        </mxCell>
        <mxCell id="4FyZVL3Yt_gfwvQZV7pb-13" value="1" style="text;html=1;align=center;verticalAlign=middle;whiteSpace=wrap;rounded=0;" vertex="1" parent="1">
          <mxGeometry x="384" y="380" width="60" height="50" as="geometry" />
        </mxCell>
        <mxCell id="4FyZVL3Yt_gfwvQZV7pb-14" value="1" style="text;html=1;align=center;verticalAlign=middle;whiteSpace=wrap;rounded=0;" vertex="1" parent="1">
          <mxGeometry x="324" y="440" width="60" height="50" as="geometry" />
        </mxCell>
        <mxCell id="4FyZVL3Yt_gfwvQZV7pb-15" value="M" style="text;html=1;align=center;verticalAlign=middle;whiteSpace=wrap;rounded=0;" vertex="1" parent="1">
          <mxGeometry x="324" y="490" width="60" height="50" as="geometry" />
        </mxCell>
        <mxCell id="4FyZVL3Yt_gfwvQZV7pb-16" value="1" style="text;html=1;align=center;verticalAlign=middle;whiteSpace=wrap;rounded=0;" vertex="1" parent="1">
          <mxGeometry x="384" y="520" width="60" height="50" as="geometry" />
        </mxCell>
        <mxCell id="4FyZVL3Yt_gfwvQZV7pb-17" value="M" style="text;html=1;align=center;verticalAlign=middle;whiteSpace=wrap;rounded=0;" vertex="1" parent="1">
          <mxGeometry x="600" y="350" width="60" height="50" as="geometry" />
        </mxCell>
        <mxCell id="4FyZVL3Yt_gfwvQZV7pb-18" value="1" style="text;html=1;align=center;verticalAlign=middle;whiteSpace=wrap;rounded=0;" vertex="1" parent="1">
          <mxGeometry x="384" y="120" width="60" height="50" as="geometry" />
        </mxCell>
        <mxCell id="4FyZVL3Yt_gfwvQZV7pb-19" value="1" style="text;html=1;align=center;verticalAlign=middle;whiteSpace=wrap;rounded=0;" vertex="1" parent="1">
          <mxGeometry x="324" y="180" width="60" height="50" as="geometry" />
        </mxCell>
        <mxCell id="4FyZVL3Yt_gfwvQZV7pb-20" value="M" style="text;html=1;align=center;verticalAlign=middle;whiteSpace=wrap;rounded=0;" vertex="1" parent="1">
          <mxGeometry x="324" y="220" width="60" height="50" as="geometry" />
        </mxCell>
        <mxCell id="4FyZVL3Yt_gfwvQZV7pb-21" value="M" style="text;html=1;align=center;verticalAlign=middle;whiteSpace=wrap;rounded=0;" vertex="1" parent="1">
          <mxGeometry x="240" y="280" width="60" height="50" as="geometry" />
        </mxCell>
        <mxCell id="4FyZVL3Yt_gfwvQZV7pb-22" value="1" style="text;html=1;align=center;verticalAlign=middle;whiteSpace=wrap;rounded=0;" vertex="1" parent="1">
          <mxGeometry x="230" y="520" width="60" height="50" as="geometry" />
        </mxCell>
        <mxCell id="4FyZVL3Yt_gfwvQZV7pb-23" value="1" style="text;html=1;align=center;verticalAlign=middle;whiteSpace=wrap;rounded=0;" vertex="1" parent="1">
          <mxGeometry x="70" y="450" width="60" height="50" as="geometry" />
        </mxCell>
        <mxCell id="4FyZVL3Yt_gfwvQZV7pb-24" value="1" style="text;html=1;align=center;verticalAlign=middle;whiteSpace=wrap;rounded=0;" vertex="1" parent="1">
          <mxGeometry x="600" y="440" width="60" height="50" as="geometry" />
        </mxCell>
      </root>
    </mxGraphModel>
  </diagram>
</mxfile>
